<svg xmlns="http://www.w3.org/2000/svg" width="115" height="115" viewBox="0 0 115 115">
  <g id="Group_74166" data-name="Group 74166" transform="translate(-145.704 -347.704)">
    <rect id="Rectangle_21500" data-name="Rectangle 21500" width="115" height="115" transform="translate(145.704 347.704)" fill="none"/>
    <g id="Layer_1" data-name="Layer 1" transform="translate(178.563 375.629)">
      <path id="Path_11" data-name="Path 11" d="M6.536,11.22A19.075,19.075,0,0,0,.15,20.747l18.321,5.36Z" transform="translate(-0.15 12.272)" fill="#ef516a"/>
      <path id="Path_12" data-name="Path 12" d="M34.725,26.287A19.179,19.179,0,0,0,3.59,13.724L15.881,28.737Z" transform="translate(3.613 10.313)" fill="#eb242b"/>
      <path id="Path_13" data-name="Path 13" d="M9.93,20.253l9.527,16.52a19.033,19.033,0,0,0,9.464-16.52,19.722,19.722,0,0,0-.168-2.513Z" transform="translate(10.547 19.404)" fill="#c52128"/>
      <path id="Path_14" data-name="Path 14" d="M8.19,38.081a18.2,18.2,0,0,0,2.638.188,19.116,19.116,0,0,0,9.778-2.617L10.828,19.09Z" transform="translate(8.644 20.881)" fill="#b02125"/>
      <path id="Path_15" data-name="Path 15" d="M2.45,31.872a19.137,19.137,0,0,0,11.558,6.281L16.814,18.89Z" transform="translate(2.366 20.662)" fill="#9c1d21"/>
      <path id="Path_16" data-name="Path 16" d="M.966,16A19.1,19.1,0,0,0,4.945,34.09L19.6,21.381Z" transform="translate(-0.129 17.501)" fill="#eb242b"/>
      <path id="Path_17" data-name="Path 17" d="M20.781,5.36a10.469,10.469,0,0,1-7.056-3.141l-.335-.356.44-.251A11.181,11.181,0,0,1,19.315,0a8.375,8.375,0,0,1,6.6,3.266l.251.335-.356.23A9.569,9.569,0,0,1,20.781,5.36Z" transform="translate(14.332)" fill="#50b848"/>
      <path id="Path_18" data-name="Path 18" d="M15.18,3.787c7.6.8,6.993-3.057,6.993-3.057l.419.335a7.1,7.1,0,0,1,1.361,1.4l.419.607a7.621,7.621,0,0,1-3.057,1.3,10.469,10.469,0,0,1-6.135-.586Z" transform="translate(16.29 0.798)" fill="#00a651"/>
      <path id="Path_19" data-name="Path 19" d="M16.582,13.64c-.188.565-1.738.565-3.5,0s-3.015-1.487-2.848-2.094,1.759-.544,3.5,0S16.771,13.074,16.582,13.64Z" transform="translate(10.868 12.156)" fill="#231f20" opacity="0.5"/>
      <path id="Path_20" data-name="Path 20" d="M11.28,24.429l.126-.356A45.519,45.519,0,0,1,33.726.455l.23-.1,2.3.314L35.61.936c-.188,0-16.981,8.187-22.425,23.911l-.147.419Z" transform="translate(12.024 0.383)" fill="#50b848"/>
    </g>
  </g>
</svg>
